<?xml version="1.0" standalone="no"?>
<!DOCTYPE svg PUBLIC "-//W3C//DTD SVG 20010904//EN"
 "http://www.w3.org/TR/2001/REC-SVG-20010904/DTD/svg10.dtd">
<svg version="1.0" xmlns="http://www.w3.org/2000/svg"
 width="438.000000pt" height="778.000000pt" viewBox="0 0 438.000000 778.000000"
 preserveAspectRatio="xMidYMid meet">

<g transform="translate(0.000000,778.000000) scale(0.100000,-0.100000)"
fill="#000000" stroke="none">
<path d="M0 3890 l0 -3890 2190 0 2190 0 0 3890 0 3890 -2190 0 -2190 0 0
-3890z m571 3660 c21 -12 26 -40 8 -40 -7 0 -17 7 -24 17 -13 17 -35 10 -35
-10 1 -7 15 -21 33 -32 41 -26 48 -66 15 -89 -28 -20 -58 -20 -84 -2 -16 12
-17 17 -6 28 11 11 16 10 27 -6 15 -20 45 -15 45 8 0 8 -16 23 -35 35 -42 24
-47 61 -13 85 26 19 42 20 69 6z m-127 -13 c12 -9 17 -23 14 -42 -2 -24 -10
-32 -35 -40 -34 -9 -43 -31 -21 -53 9 -9 3 -12 -28 -12 l-40 0 4 65 c3 43 0
70 -8 80 -11 13 -5 15 42 15 30 0 62 -6 72 -13z m306 -6 c0 -26 -18 -37 -26
-17 -3 9 -11 16 -16 16 -6 0 -9 -27 -6 -70 l4 -70 -40 0 c-31 0 -37 3 -28 12
14 14 17 128 3 128 -5 0 -12 -7 -15 -16 -8 -20 -26 -9 -26 17 0 17 7 19 75 19
68 0 75 -2 75 -19z m105 -46 c12 -33 26 -68 30 -77 6 -15 2 -18 -28 -18 -30 0
-34 3 -30 20 4 16 0 20 -22 20 -22 0 -26 -4 -22 -20 4 -16 0 -20 -19 -20 -24
0 -32 14 -15 25 5 3 19 35 31 71 27 81 44 81 75 -1z m179 49 c20 -19 20 -29 1
-48 -14 -13 -13 -19 5 -51 25 -44 25 -55 1 -55 -22 0 -36 16 -45 53 -10 41
-30 34 -23 -8 6 -34 5 -35 -26 -35 l-32 0 0 80 0 80 52 0 c34 0 57 -5 67 -16z
m172 1 c-3 -8 1 -31 8 -52 l14 -38 12 30 c7 17 12 40 12 53 0 15 7 22 19 22
22 0 23 -4 9 -28 -5 -9 -19 -43 -31 -74 -11 -32 -27 -58 -34 -58 -7 0 -23 26
-34 58 -12 31 -26 65 -31 74 -15 26 -13 28 26 28 28 0 35 -3 30 -15z m198 -1
c24 -24 19 -43 -21 -80 l-37 -34 37 0 c26 0 37 -4 37 -15 0 -12 -13 -15 -55
-15 -64 0 -70 12 -25 55 19 19 30 39 30 57 0 30 -17 38 -26 13 -8 -19 -34 -20
-34 0 0 32 67 46 94 19z m2546 6 c0 -6 -60 -10 -160 -10 -100 0 -160 4 -160
10 0 6 60 10 160 10 100 0 160 -4 160 -10z m-213 -50 l6 -21 19 21 c22 23 48
27 48 6 0 -7 -7 -19 -15 -26 -14 -12 -14 -15 0 -36 20 -31 19 -34 -8 -34 -15
0 -28 9 -35 23 l-11 22 0 -22 c-1 -18 -7 -23 -26 -23 -23 0 -25 3 -25 48 0 27
3 52 7 55 13 14 35 6 40 -13z m211 2 c2 -7 -5 -16 -17 -19 -16 -4 -21 -13 -21
-39 0 -30 -3 -34 -25 -34 -22 0 -25 4 -25 35 0 24 -5 35 -15 35 -15 0 -20 21
-8 34 12 12 106 2 111 -12z m117 9 c3 -5 1 -12 -4 -15 -5 -3 -7 -15 -4 -26 4
-16 0 -20 -21 -20 -14 0 -26 -4 -26 -10 0 -5 14 -10 30 -10 17 0 30 -4 30 -10
0 -5 -25 -10 -55 -10 l-55 0 0 55 0 55 49 0 c28 0 52 -4 56 -9z m-2930 -51
c-3 -5 -19 -10 -36 -10 -16 0 -29 5 -29 10 0 6 16 10 36 10 21 0 33 -4 29 -10z
m2925 -90 c0 -6 -45 -10 -115 -10 -70 0 -115 4 -115 10 0 6 45 10 115 10 70 0
115 -4 115 -10z m-3512 -494 c15 -8 38 -26 52 -41 21 -23 25 -36 25 -90 0 -54
-4 -67 -25 -90 -55 -59 -131 -72 -191 -32 -64 42 -85 120 -51 187 34 69 124
100 190 66z m2049 -3 c69 -32 97 -113 65 -187 -64 -144 -275 -98 -275 60 0
108 110 175 210 127z m-1813 -69 c9 -3 16 -12 16 -20 0 -17 -5 -17 -31 -4 -15
8 -19 7 -19 -4 0 -7 11 -17 24 -20 41 -10 44 -59 5 -71 -26 -9 -59 3 -59 21 0
12 7 14 32 8 29 -6 31 -5 19 10 -7 9 -19 16 -27 16 -20 0 -34 31 -23 52 10 18
35 23 63 12z m120 -10 c21 -20 21 -78 0 -98 -49 -50 -110 27 -74 95 13 23 53
25 74 3z m56 -18 c0 -44 9 -66 26 -66 10 0 14 14 14 50 0 38 4 50 15 50 11 0
15 -13 15 -53 0 -57 -12 -77 -45 -77 -12 0 -26 5 -33 12 -14 14 -16 118 -2
118 6 0 10 -15 10 -34z m166 26 c14 -9 16 -122 3 -122 -5 0 -14 11 -19 25 -12
31 -28 32 -32 3 -2 -12 -9 -23 -15 -26 -10 -3 -13 14 -13 62 l0 66 33 0 c17 0
37 -4 43 -8z m118 -11 c23 -26 2 -39 -24 -16 -19 17 -20 17 -28 -6 -17 -44 7
-76 35 -48 20 20 36 -1 17 -22 -37 -41 -88 -14 -88 46 0 60 51 87 88 46z m104
7 c-3 -7 -14 -14 -26 -16 -28 -4 -29 -22 -2 -22 11 0 20 -5 20 -11 0 -6 -9
-13 -20 -16 -29 -8 -25 -23 6 -23 40 0 23 -25 -19 -28 l-37 -3 0 65 0 66 41 0
c28 0 39 -4 37 -12z m1472 -3 c18 -22 2 -40 -19 -21 -21 19 -41 4 -41 -31 0
-25 31 -45 38 -25 2 7 10 12 19 12 25 0 10 -34 -21 -45 -24 -8 -31 -6 -47 14
-23 28 -25 74 -3 95 19 20 58 21 74 1z m114 -7 c9 -12 16 -32 16 -43 0 -31
-28 -65 -54 -65 -28 0 -42 15 -51 53 -16 61 55 104 89 55z m70 -15 c17 -49 25
-50 43 -5 24 63 43 55 43 -17 0 -60 -16 -92 -27 -52 l-5 20 -18 -21 -17 -22
-13 24 -13 24 -8 -22 c-16 -42 -29 -23 -29 44 0 56 2 65 17 62 9 -2 21 -17 27
-35z m276 23 c0 -8 -12 -16 -27 -18 l-28 -4 28 -12 c30 -13 28 -32 -4 -32 -14
0 -19 -7 -19 -26 0 -16 -5 -24 -12 -22 -13 5 -23 89 -14 114 7 19 76 19 76 0z
m93 -49 c10 -32 17 -61 14 -63 -3 -3 -14 1 -26 8 -17 10 -25 10 -41 0 -35 -21
-40 -5 -18 59 26 76 44 75 71 -4z m57 -3 c0 -48 -3 -65 -12 -62 -13 5 -23 89
-14 114 13 35 26 9 26 -52z m50 16 c0 -47 2 -50 25 -50 16 0 25 -6 25 -15 0
-11 -11 -15 -40 -15 l-40 0 0 65 c0 51 3 65 15 65 11 0 15 -12 15 -50z m81 38
c1 -7 1 -19 -1 -27 -3 -27 11 -61 25 -61 11 0 15 13 15 50 0 38 4 50 15 50 19
0 21 -100 3 -118 -19 -19 -55 -14 -72 10 -16 22 -22 89 -9 101 10 11 23 8 24
-5z m166 0 c13 -17 15 -118 2 -118 -5 0 -14 11 -19 25 -12 31 -28 32 -32 3 -2
-12 -9 -23 -15 -26 -10 -3 -13 14 -13 62 l0 66 34 0 c18 0 38 -6 43 -12z m103
-3 c-3 -5 -11 -10 -19 -10 -8 0 -16 -6 -19 -13 -2 -7 5 -12 18 -12 13 0 20 -5
18 -12 -3 -7 -11 -13 -18 -13 -22 0 -23 -23 0 -27 33 -5 24 -23 -15 -26 l-35
-3 0 66 0 66 38 -3 c20 -2 35 -7 32 -13z m-692 -97 c-6 -18 -28 -21 -28 -4 0
9 7 16 16 16 9 0 14 -5 12 -12z m-2582 -264 c101 -48 98 -203 -6 -257 -99 -51
-222 35 -207 145 14 103 117 157 213 112z m2044 1 c69 -35 95 -117 61 -187
-27 -54 -61 -79 -116 -85 -72 -9 -145 48 -159 121 -9 50 22 119 66 146 39 24
107 26 148 5z m-1798 -124 c10 -30 16 -57 13 -59 -3 -3 -16 0 -29 7 -19 10
-27 10 -44 0 -36 -22 -35 -12 3 99 10 29 39 5 57 -47z m113 -1 l0 -55 -42 -3
-43 -3 0 61 0 61 43 -3 42 -3 0 -55z m67 33 l12 -28 4 28 c2 15 10 27 18 27
11 0 14 -15 14 -60 0 -68 -18 -81 -44 -32 l-15 27 -1 -27 c0 -18 -5 -28 -15
-28 -12 0 -15 13 -15 60 0 47 3 60 15 60 9 0 21 -12 27 -27z m158 8 c23 -44
-3 -111 -44 -111 -39 0 -64 88 -34 118 19 19 66 15 78 -7z m110 -2 c7 -13 8
-25 2 -32 -5 -7 -6 -21 -1 -32 12 -31 11 -35 -11 -35 -13 0 -20 7 -20 20 0 11
-5 20 -11 20 -6 0 -13 -9 -16 -20 -3 -11 -12 -20 -19 -20 -10 0 -14 16 -14 60
l0 60 40 0 c29 0 42 -5 50 -21z m69 -21 l19 -43 17 43 c25 61 45 55 45 -13 0
-30 4 -55 9 -55 4 0 14 24 22 53 20 73 45 72 71 -2 10 -30 16 -57 13 -59 -3
-3 -16 1 -30 8 -20 10 -28 11 -37 2 -7 -7 -27 -12 -45 -12 -25 0 -33 4 -33 18
-1 16 -1 16 -14 0 -7 -10 -17 -18 -21 -18 -4 0 -14 8 -21 18 -13 16 -13 16
-14 0 0 -10 -7 -18 -15 -18 -12 0 -15 13 -15 60 0 74 21 82 49 18z m241 -8 c0
-47 2 -50 25 -50 14 0 25 -4 25 -10 0 -5 -18 -10 -40 -10 l-40 0 0 60 c0 47 3
60 15 60 11 0 15 -12 15 -50z m1202 3 c3 -41 6 -48 26 -51 38 -6 24 -22 -18
-22 l-40 0 0 60 c0 46 3 60 14 60 11 0 16 -14 18 -47z m146 35 c20 -20 15 -83
-9 -104 -19 -17 -23 -17 -47 -3 -21 11 -28 24 -30 53 -2 20 2 44 9 52 14 17
61 18 77 2z m57 -18 c4 -16 10 -30 15 -30 4 0 10 14 14 30 7 39 32 39 41 0 7
-32 25 -32 25 0 0 20 17 36 27 26 4 -3 0 -31 -7 -61 -16 -65 -41 -75 -57 -22
-10 33 -13 31 -29 -20 -8 -29 -34 -12 -44 30 -6 23 -13 50 -16 60 -3 11 0 17
10 17 8 0 17 -13 21 -30z m275 10 c14 -26 -3 -60 -31 -60 -12 0 -23 -8 -26
-20 -3 -11 -12 -20 -19 -20 -10 0 -14 16 -14 60 l0 60 40 0 c29 0 42 -5 50
-20z m107 -42 c1 -42 -2 -58 -12 -58 -7 0 -15 9 -18 20 -3 11 -10 20 -16 20
-6 0 -11 -9 -11 -20 0 -11 -7 -20 -15 -20 -12 0 -15 13 -15 61 l0 60 43 -3 42
-3 2 -57z m103 53 c0 -5 -10 -11 -22 -13 -28 -4 -36 -28 -9 -28 12 0 21 -4 21
-10 0 -5 -9 -10 -20 -10 -11 0 -20 -7 -20 -15 0 -9 9 -15 25 -15 14 0 25 -4
25 -10 0 -5 -18 -10 -40 -10 l-40 0 0 60 0 60 40 0 c22 0 40 -4 40 -9z m91 -8
c13 -15 11 -16 -18 -10 -40 8 -43 -7 -5 -25 57 -27 23 -95 -34 -69 -35 16 -31
34 6 26 37 -8 41 11 6 25 -31 11 -39 25 -31 50 8 25 57 27 76 3z m98 3 c15
-17 1 -28 -19 -15 -20 12 -30 11 -30 -2 0 -5 14 -15 30 -20 22 -8 30 -17 30
-35 0 -31 -34 -50 -66 -35 -35 16 -31 34 6 26 37 -8 41 11 6 25 -31 11 -39 25
-31 50 8 24 56 28 74 6z m59 -39 c2 -33 7 -47 18 -47 10 0 14 13 14 50 0 38 4
50 15 50 12 0 15 -13 15 -55 0 -45 -4 -56 -21 -66 -32 -17 -69 3 -70 38 -1 16
-3 37 -3 48 -2 27 4 37 17 32 7 -2 13 -25 15 -50z m169 -9 c1 -42 -2 -58 -12
-58 -7 0 -15 9 -18 20 -3 11 -10 20 -16 20 -6 0 -11 -9 -11 -20 0 -11 -7 -20
-15 -20 -12 0 -15 13 -15 61 l0 60 43 -3 42 -3 2 -57z m103 53 c0 -5 -10 -11
-22 -13 -28 -4 -36 -28 -9 -28 27 0 27 -16 1 -23 -28 -7 -25 -27 5 -27 14 0
25 -4 25 -10 0 -5 -18 -10 -40 -10 l-40 0 0 60 0 60 40 0 c22 0 40 -4 40 -9z
m-3407 -368 c64 -32 88 -134 47 -201 -26 -43 -98 -76 -143 -67 -98 21 -155
123 -113 203 43 82 125 107 209 65z m299 -111 c4 -61 22 -61 26 1 2 34 7 47
18 47 12 0 14 -12 12 -56 -3 -62 -21 -79 -65 -63 -20 7 -23 15 -23 68 0 49 3
59 14 55 10 -4 16 -23 18 -52z m118 26 l20 -33 0 28 c0 21 4 28 17 25 24 -4
26 -111 2 -116 -9 -2 -21 9 -29 25 l-14 28 -4 -27 c-2 -16 -10 -28 -18 -28
-10 0 -14 14 -14 58 0 52 5 72 17 72 2 0 12 -15 23 -32z m-174 -40 c2 -44 -2
-58 -12 -58 -8 0 -14 9 -14 20 0 11 -7 20 -15 20 -8 0 -15 -9 -15 -20 0 -11
-7 -20 -15 -20 -12 0 -15 13 -15 61 l0 60 43 -3 42 -3 1 -57z m-256 -306 c103
-51 107 -207 7 -259 -127 -65 -262 69 -198 195 37 72 120 100 191 64z m2059
-9 c47 -36 66 -71 66 -123 0 -109 -121 -178 -217 -124 -46 27 -82 100 -72 149
8 44 47 93 89 111 38 18 100 11 134 -13z m-1821 -65 c20 -20 14 -31 -13 -24
-14 4 -25 2 -25 -4 0 -5 11 -12 25 -16 29 -7 42 -39 25 -59 -17 -20 -69 -19
-77 0 -8 22 2 28 26 16 13 -7 22 -8 26 -1 3 6 -2 13 -12 17 -22 7 -53 33 -53
44 0 14 31 39 49 39 9 0 22 -5 29 -12z m117 3 c3 -6 -4 -15 -15 -21 -15 -8
-20 -21 -20 -55 0 -33 -4 -45 -15 -45 -11 0 -15 12 -15 50 0 38 -4 50 -15 50
-16 0 -20 12 -8 23 10 11 81 8 88 -2z m89 -7 c19 -18 21 -85 4 -102 -19 -19
-66 -15 -78 7 -35 66 26 144 74 95z m100 6 c39 -14 36 -58 -4 -73 -18 -7 -30
-19 -30 -29 0 -10 -7 -18 -15 -18 -12 0 -15 13 -15 58 0 76 8 84 64 62z m1744
-2 c20 -20 14 -31 -13 -24 -14 4 -25 2 -25 -4 0 -5 11 -12 25 -16 29 -7 42
-39 25 -59 -17 -20 -69 -19 -77 0 -8 22 2 28 26 16 13 -7 22 -8 26 -1 3 6 -2
13 -12 17 -22 7 -53 33 -53 44 0 14 31 39 49 39 9 0 22 -5 29 -12z m117 3 c3
-6 -4 -15 -15 -21 -15 -8 -20 -21 -20 -55 0 -33 -4 -45 -15 -45 -11 0 -15 12
-15 50 0 38 -4 50 -15 50 -16 0 -20 12 -8 23 10 11 81 8 88 -2z m84 -53 c11
-34 19 -64 16 -66 -3 -3 -16 0 -29 7 -19 10 -27 10 -44 0 -28 -18 -34 -9 -21
32 35 110 48 115 78 27z m78 24 l11 -27 1 27 c1 26 17 46 28 35 3 -3 5 -32 6
-64 0 -69 -20 -82 -45 -31 l-17 33 0 -32 c-1 -22 -6 -33 -16 -33 -12 0 -15 13
-15 58 0 32 3 61 6 65 11 11 30 -4 41 -31z m143 18 c24 -24 26 -72 4 -94 -8
-9 -31 -16 -50 -16 l-34 0 0 58 c0 32 3 62 7 65 13 14 54 6 73 -13z m101 9
c12 -6 19 -19 18 -32 -1 -12 1 -30 6 -40 11 -27 -13 -47 -56 -47 l-39 0 0 58
c0 32 3 62 7 65 10 10 42 8 64 -4z m69 -15 c0 -21 16 -17 33 9 22 33 33 12 14
-28 -9 -20 -17 -47 -17 -60 0 -16 -6 -25 -15 -25 -8 0 -15 9 -15 20 0 12 -9
38 -20 59 -10 21 -17 41 -14 44 10 9 34 -4 34 -19z m-2882 -348 c54 -28 75
-62 80 -125 4 -58 3 -61 -35 -102 -36 -38 -46 -43 -94 -46 -45 -4 -60 -1 -89
19 -95 64 -89 199 11 250 41 22 90 23 127 4z m202 -91 c0 -16 6 -25 15 -25 9
0 15 9 15 25 0 16 6 25 15 25 13 0 15 -11 13 -62 -3 -62 -24 -93 -30 -43 -4
32 -21 34 -28 4 -3 -12 -11 -24 -18 -27 -9 -3 -12 15 -12 62 0 52 3 66 15 66
9 0 15 -9 15 -25z m153 10 c-1 -5 -11 -11 -23 -13 -26 -4 -26 -22 1 -22 12 0
19 -5 17 -12 -3 -7 -11 -13 -18 -13 -7 0 -15 -6 -17 -12 -3 -7 2 -13 10 -13 9
0 22 -3 30 -6 12 -4 20 9 33 51 23 72 43 70 68 -8 20 -63 18 -75 -12 -56 -12
7 -27 9 -38 4 -11 -5 -43 -10 -71 -12 l-53 -4 0 66 0 66 38 -3 c20 -2 36 -7
35 -13z m207 5 c0 -5 -6 -13 -14 -17 -8 -5 -16 -27 -18 -52 -4 -64 -28 -67
-28 -3 0 35 -4 52 -15 56 -30 11 -14 26 30 26 25 0 45 -4 45 -10z m40 -56 c0
-48 -3 -65 -12 -62 -8 3 -14 28 -16 66 -2 51 0 62 13 62 12 0 15 -13 15 -66z
m65 34 l13 -33 4 29 c1 16 9 31 16 34 9 3 12 -14 12 -62 0 -73 -10 -82 -39
-35 l-19 32 -4 -27 c-6 -51 -23 -31 -26 32 -2 51 0 62 13 62 9 0 22 -15 30
-32z m155 17 c15 -18 3 -42 -13 -26 -6 6 -19 11 -29 11 -14 0 -18 -8 -18 -35
0 -29 4 -35 22 -35 17 0 19 3 10 12 -19 19 -14 28 13 28 22 0 25 -4 25 -34 0
-33 -1 -34 -41 -32 -22 1 -45 9 -50 17 -12 19 -11 66 1 90 13 23 62 26 80 4z
m886 -1299 l34 -34 0 -322 0 -322 -34 -34 -34 -34 -321 0 c-357 0 -360 0 -387
67 -17 39 -20 595 -4 638 5 14 22 37 36 50 l27 25 324 0 325 0 34 -34z m1267
23 c26 -7 44 -21 57 -42 19 -30 20 -53 20 -344 l0 -313 -29 -32 -29 -33 -314
-3 c-276 -3 -317 -1 -344 13 -58 31 -59 38 -59 381 l0 313 29 30 c16 16 38 32
50 34 48 10 583 6 619 -4z m-2960 -256 c64 -32 88 -134 47 -201 -20 -33 -87
-71 -124 -72 -11 0 -39 9 -63 21 -71 34 -103 122 -69 187 43 83 125 108 209
65z m227 -63 c36 -20 37 -100 1 -119 -60 -33 -103 66 -49 112 24 20 24 20 48
7z m89 -27 l20 -28 1 28 c0 17 5 27 15 27 12 0 15 -13 15 -60 0 -53 -2 -60
-20 -60 -13 0 -22 9 -26 25 -3 14 -10 25 -15 25 -5 0 -9 -11 -9 -25 0 -16 -6
-25 -15 -25 -12 0 -15 13 -15 60 0 69 15 78 49 33z m1351 -748 c58 -30 60 -44
60 -380 0 -336 -2 -350 -60 -380 -24 -12 -81 -15 -332 -15 -326 0 -334 1 -372
53 -20 27 -21 39 -21 342 0 303 1 315 21 342 38 52 46 53 372 53 251 0 308 -3
332 -15z m-1687 -29 c56 -24 80 -59 85 -125 4 -58 3 -61 -35 -102 -36 -38 -46
-43 -94 -46 -45 -4 -60 -1 -89 19 -95 64 -89 199 11 250 41 22 79 23 122 4z
m219 -113 l21 -47 17 44 c26 66 44 59 48 -17 2 -52 0 -63 -13 -63 -9 0 -15 9
-15 23 0 22 0 22 -20 -3 -18 -24 -19 -24 -33 -6 -12 17 -14 17 -20 2 -14 -36
-27 -13 -27 49 0 78 13 83 42 18z m166 34 c14 -17 36 -106 28 -114 -3 -4 -12
-1 -18 5 -15 15 -48 16 -48 2 0 -5 -7 -10 -15 -10 -21 0 -19 9 20 118 6 16 20
15 33 -1z m92 -14 l13 -28 6 24 c4 14 12 26 19 29 9 3 12 -15 12 -62 0 -52 -3
-66 -15 -66 -9 0 -21 12 -27 28 l-11 27 -6 -24 c-4 -14 -12 -26 -19 -29 -9 -3
-12 15 -12 62 0 73 16 88 40 39z m98 -19 c1 -21 5 -46 8 -54 9 -26 34 19 34
63 0 27 4 37 13 34 16 -5 15 -91 -2 -111 -16 -19 -52 -21 -69 -4 -17 17 -16
121 1 116 6 -3 13 -22 15 -44z m159 -3 c7 -24 15 -52 18 -62 4 -13 1 -19 -9
-19 -9 0 -16 5 -16 10 0 6 -9 10 -19 10 -11 0 -23 -4 -26 -10 -9 -14 -25 -12
-25 3 0 7 7 37 16 66 19 65 42 66 61 2z m63 0 c0 -43 3 -50 22 -53 41 -6 32
-28 -11 -28 l-41 0 0 58 c0 32 3 62 7 65 16 17 23 4 23 -42z m1730 -11 c13 -7
21 -7 25 0 8 13 88 13 102 -1 8 -8 17 -8 31 0 48 26 92 -6 92 -66 0 -45 -24
-73 -61 -73 -34 0 -59 32 -59 77 0 22 -5 33 -14 33 -11 0 -16 -15 -18 -52 -2
-41 -7 -54 -20 -56 -15 -3 -18 5 -18 51 0 46 -3 55 -20 60 -11 3 -20 0 -20 -5
0 -6 -13 -8 -32 -4 -33 7 -32 0 3 -18 37 -19 46 -42 24 -66 -23 -25 -72 -24
-89 2 -14 24 -1 33 28 20 13 -6 27 -8 30 -4 4 3 -8 13 -26 22 -39 18 -50 57
-22 77 21 16 39 16 64 3z m351 -9 c20 -16 22 -23 14 -47 -8 -21 -18 -30 -38
-32 -21 -3 -27 -9 -27 -28 0 -17 -5 -24 -20 -24 -18 0 -20 7 -20 68 0 38 3 72
7 75 13 14 61 7 84 -12z m-2849 -317 c77 -57 78 -173 2 -233 -60 -47 -154 -36
-200 24 -53 70 -37 164 36 213 28 19 45 23 86 20 29 -3 62 -13 76 -24z m2471
-4 l14 -21 6 21 c4 16 13 20 51 20 34 0 46 -4 46 -15 0 -8 -9 -15 -19 -15 -27
0 -35 -17 -11 -23 26 -7 26 -37 0 -37 -11 0 -20 -4 -20 -10 0 -5 12 -10 26
-10 19 0 25 -5 22 -17 -4 -20 -37 -28 -74 -19 -21 6 -24 12 -24 53 0 25 -3 43
-7 39 -4 -4 -7 -25 -8 -46 0 -45 -15 -56 -30 -22 -12 27 -25 29 -25 3 0 -19
-23 -35 -34 -24 -3 4 -6 37 -6 75 l0 68 39 0 c29 0 44 -6 54 -20z m217 0 c9
-16 8 -22 -5 -26 -8 -4 -22 -1 -30 6 -8 7 -15 9 -15 4 0 -5 14 -17 30 -26 39
-22 41 -63 5 -80 -31 -14 -75 3 -75 28 0 13 6 15 30 11 36 -8 41 8 5 17 -35 9
-48 37 -29 64 20 29 69 30 84 2z m227 4 c2 -6 -5 -14 -16 -17 -16 -4 -20 -15
-23 -58 -2 -40 -7 -54 -18 -54 -11 0 -16 14 -18 50 -4 54 -13 65 -54 65 -34 0
-46 -17 -16 -22 30 -4 30 -32 1 -36 -31 -4 -29 -22 1 -22 29 0 38 -10 27 -29
-5 -7 -23 -11 -47 -9 l-39 3 -3 72 -3 73 102 -3 c65 -1 104 -6 106 -13z
m-2703 -60 c9 -3 16 -12 16 -20 0 -17 -12 -18 -28 -2 -6 6 -15 8 -19 4 -5 -5
0 -13 10 -20 45 -27 49 -33 43 -54 -9 -26 -50 -39 -71 -22 -24 20 -17 32 15
25 37 -8 41 12 5 21 -32 8 -46 33 -34 56 10 18 35 23 63 12z m116 -4 c0 -6 -7
-13 -15 -16 -11 -4 -15 -21 -15 -56 0 -64 -24 -61 -28 3 -2 25 -10 47 -18 52
-27 15 -14 27 31 27 25 0 45 -5 45 -10z m40 -10 c0 -11 -4 -20 -9 -20 -14 0
-23 18 -16 30 10 17 25 11 25 -10z m97 8 c5 -7 10 -32 11 -55 1 -47 -15 -63
-62 -63 -25 0 -26 2 -26 65 l0 65 34 0 c18 0 38 -6 43 -12z m57 -9 l14 -21 11
21 c7 12 18 21 27 21 12 0 11 -7 -6 -40 -11 -21 -20 -51 -20 -65 0 -36 -24
-27 -28 10 -2 16 -10 38 -18 49 -16 23 -18 46 -5 46 6 0 16 -9 25 -21z m1095
-628 c17 -17 18 -38 17 -295 -1 -263 -2 -278 -20 -292 -16 -11 -72 -14 -288
-14 -255 0 -269 1 -288 20 -19 19 -20 33 -20 292 0 239 2 274 17 290 15 17 37
18 290 18 253 0 274 -1 292 -19z"/>
<path d="M390 7511 c0 -12 0 -24 0 -28 0 -5 6 -8 13 -8 6 0 12 11 12 24 0 13
-6 26 -12 29 -8 2 -13 -5 -13 -17z"/>
<path d="M797 7483 c-12 -12 -7 -33 8 -33 17 0 19 9 7 28 -5 7 -11 9 -15 5z"/>
<path d="M970 7504 c0 -31 23 -28 28 4 2 15 -2 22 -12 22 -11 0 -16 -9 -16
-26z"/>
<path d="M850 6734 c0 -28 3 -35 18 -32 11 2 18 14 20 36 3 27 0 32 -17 32
-17 0 -21 -6 -21 -36z"/>
<path d="M1080 6755 c0 -8 7 -15 15 -15 8 0 15 7 15 15 0 8 -7 15 -15 15 -8 0
-15 -7 -15 -15z"/>
<path d="M2877 6756 c-8 -21 3 -56 18 -56 17 0 27 28 20 51 -7 22 -31 25 -38
5z"/>
<path d="M3330 6736 c0 -9 5 -16 10 -16 6 0 10 4 10 9 0 6 -4 13 -10 16 -5 3
-10 -1 -10 -9z"/>
<path d="M3680 6754 c0 -9 5 -14 12 -12 18 6 21 28 4 28 -9 0 -16 -7 -16 -16z"/>
<path d="M760 6294 c0 -8 5 -12 10 -9 6 4 8 11 5 16 -9 14 -15 11 -15 -7z"/>
<path d="M866 6333 c-11 -11 -6 -23 9 -23 8 0 15 4 15 9 0 13 -16 22 -24 14z"/>
<path d="M867 6283 c-12 -11 -8 -23 8 -23 8 0 15 7 15 15 0 16 -12 20 -23 8z"/>
<path d="M1087 6333 c-4 -3 -7 -21 -7 -40 0 -23 5 -33 15 -33 20 0 29 23 21
55 -6 25 -17 31 -29 18z"/>
<path d="M1195 6330 c-4 -6 -3 -16 3 -22 6 -6 12 -6 17 2 4 6 3 16 -3 22 -6 6
-12 6 -17 -2z"/>
<path d="M1460 6294 c0 -8 5 -12 10 -9 6 4 8 11 5 16 -9 14 -15 11 -15 -7z"/>
<path d="M2854 6327 c-9 -25 0 -62 16 -62 10 0 15 10 15 34 0 36 -21 54 -31
28z"/>
<path d="M3185 6330 c-9 -15 4 -30 20 -23 8 3 15 9 15 13 0 12 -29 20 -35 10z"/>
<path d="M3295 6330 c-4 -6 -3 -16 3 -22 6 -6 12 -6 17 2 4 6 3 16 -3 22 -6 6
-12 6 -17 -2z"/>
<path d="M3815 6330 c-4 -6 -3 -16 3 -22 6 -6 12 -6 17 2 4 6 3 16 -3 22 -6 6
-12 6 -17 -2z"/>
<path d="M750 5886 c0 -9 7 -16 16 -16 17 0 14 22 -4 28 -7 2 -12 -3 -12 -12z"/>
<path d="M947 5454 c-12 -13 -7 -51 8 -64 12 -10 16 -9 21 3 13 35 -9 81 -29
61z"/>
<path d="M1060 5445 c0 -8 7 -15 15 -15 8 0 15 7 15 15 0 8 -7 15 -15 15 -8 0
-15 -7 -15 -15z"/>
<path d="M3001 5424 c0 -11 3 -14 6 -6 3 7 2 16 -1 19 -3 4 -6 -2 -5 -13z"/>
<path d="M3210 5425 c0 -29 3 -36 18 -33 11 2 17 13 17 33 0 20 -6 31 -17 33
-15 3 -18 -4 -18 -33z"/>
<path d="M3320 5450 c0 -5 7 -10 15 -10 8 0 15 5 15 10 0 6 -7 10 -15 10 -8 0
-15 -4 -15 -10z"/>
<path d="M3322 5398 c5 -15 28 -18 29 -3 0 6 -7 12 -17 13 -10 3 -15 -1 -12
-10z"/>
<path d="M960 4986 c0 -9 5 -16 10 -16 6 0 10 4 10 9 0 6 -4 13 -10 16 -5 3
-10 -1 -10 -9z"/>
<path d="M1571 3714 l-31 -26 0 -306 c1 -226 4 -311 13 -323 28 -37 50 -39
352 -39 l297 0 29 29 29 29 0 302 0 302 -29 29 -29 29 -300 0 -300 0 -31 -26z
m626 -37 c16 -16 18 -42 18 -298 l0 -281 -24 -19 c-22 -18 -42 -19 -293 -19
l-269 0 -24 25 -25 24 0 266 c0 277 3 298 43 315 12 5 142 8 289 7 242 -2 269
-4 285 -20z"/>
<path d="M1687 3443 c-4 -3 -7 -35 -7 -70 0 -48 3 -63 14 -63 9 0 16 12 18 28
2 16 9 27 18 27 9 0 16 -11 18 -27 2 -17 9 -28 18 -28 12 0 14 13 12 68 -3 66
-17 87 -28 40 -8 -32 -34 -29 -38 5 -3 26 -12 34 -25 20z"/>
<path d="M1807 3444 c-4 -4 -7 -36 -7 -71 l0 -63 46 0 c51 0 59 22 10 28 -32
4 -30 25 2 30 12 2 22 7 22 12 0 5 -10 10 -22 12 -35 5 -34 28 2 28 21 0 30 4
28 13 -5 13 -69 22 -81 11z"/>
<path d="M1927 3413 c-26 -67 -31 -103 -13 -103 9 0 16 5 16 10 0 6 11 10 25
10 14 0 25 -4 25 -10 0 -5 7 -10 15 -10 19 0 18 22 -4 85 -22 63 -43 69 -64
18z m43 -45 c0 -5 -7 -8 -15 -8 -17 0 -18 2 -9 25 5 13 8 14 15 3 5 -7 9 -16
9 -20z"/>
<path d="M2027 3443 c-12 -11 -8 -21 10 -25 12 -2 16 -15 17 -53 1 -39 5 -50
19 -53 14 -3 17 5 17 52 0 43 3 56 15 56 8 0 15 7 15 15 0 11 -11 15 -43 15
-24 0 -47 -3 -50 -7z"/>
<path d="M2898 3735 c-15 -9 -32 -24 -38 -35 -6 -11 -10 -135 -10 -324 l0
-305 24 -28 24 -28 312 0 312 0 29 33 29 32 0 300 0 300 -29 32 -29 33 -299 2
c-249 2 -302 0 -325 -12z m604 -62 c17 -15 18 -37 18 -294 0 -239 -2 -280 -16
-293 -13 -14 -54 -16 -294 -16 -277 0 -279 0 -294 22 -14 19 -16 64 -16 290 0
255 1 269 20 288 19 19 33 20 292 20 239 0 274 -2 290 -17z"/>
<path d="M754 3406 c-8 -21 -1 -59 13 -63 6 -2 14 5 18 16 12 40 -17 84 -31
47z"/>
<path d="M1600 2637 c-59 -15 -60 -21 -60 -355 l0 -303 25 -24 24 -25 305 0
c167 0 312 3 321 6 41 16 45 50 45 349 0 310 -4 338 -54 351 -36 9 -572 10
-606 1z m596 -58 c18 -20 19 -40 19 -294 0 -254 -1 -274 -19 -294 -19 -20 -27
-21 -298 -21 -265 0 -279 1 -298 20 -19 19 -20 33 -20 295 0 262 1 276 20 295
19 19 33 20 298 20 271 0 279 -1 298 -21z"/>
<path d="M1830 2340 c-39 -39 -14 -130 35 -130 27 0 55 38 55 75 0 37 -28 75
-55 75 -8 0 -24 -9 -35 -20z m48 -19 c19 -12 11 -75 -10 -79 -20 -4 -32 29
-24 64 7 26 13 29 34 15z"/>
<path d="M1652 2283 c3 -67 17 -87 29 -41 l5 23 12 -22 c7 -13 19 -23 27 -23
7 0 17 10 21 23 l8 22 5 -23 c12 -46 26 -26 29 41 3 60 1 68 -14 65 -10 -2
-23 -21 -32 -46 -16 -49 -27 -47 -43 8 -9 28 -18 40 -31 40 -17 0 -19 -7 -16
-67z"/>
<path d="M1940 2285 l0 -65 38 0 c49 0 62 14 62 65 0 51 -13 65 -62 65 l-38 0
0 -65z m68 -4 c-4 -44 -31 -50 -36 -8 -5 39 4 58 23 51 12 -5 15 -17 13 -43z"/>
<path d="M2060 2285 l0 -65 45 0 c48 0 62 17 18 22 -35 4 -43 28 -9 28 32 0
35 27 4 32 -30 4 -25 22 7 26 43 6 28 22 -20 22 l-45 0 0 -65z"/>
<path d="M900 2500 c0 -5 5 -10 10 -10 6 0 10 5 10 10 0 6 -4 10 -10 10 -5 0
-10 -4 -10 -10z"/>
<path d="M1240 2500 c0 -5 5 -10 11 -10 5 0 7 5 4 10 -3 6 -8 10 -11 10 -2 0
-4 -4 -4 -10z"/>
<path d="M3247 2473 c-12 -11 -8 -50 6 -62 19 -15 27 -4 27 36 0 31 -16 44
-33 26z"/>
<path d="M3370 2464 c0 -9 5 -14 12 -12 18 6 21 28 4 28 -9 0 -16 -7 -16 -16z"/>
<path d="M2990 2156 c0 -9 5 -16 10 -16 6 0 10 4 10 9 0 6 -4 13 -10 16 -5 3
-10 -1 -10 -9z"/>
<path d="M990 2095 c0 -9 5 -15 11 -13 6 2 11 8 11 13 0 5 -5 11 -11 13 -6 2
-11 -4 -11 -13z"/>
<path d="M990 2046 c0 -9 7 -16 16 -16 17 0 14 22 -4 28 -7 2 -12 -3 -12 -12z"/>
<path d="M1792 1288 l3 -73 72 -3 c68 -3 72 -2 75 20 2 15 11 24 26 26 31 5
49 44 34 77 -10 22 -18 25 -62 25 l-50 0 0 -55 c0 -52 -1 -55 -25 -55 -24 0
-25 3 -25 55 0 52 -1 55 -25 55 -26 0 -26 -1 -23 -72z m168 22 c0 -5 -4 -10
-10 -10 -5 0 -10 5 -10 10 0 6 5 10 10 10 6 0 10 -4 10 -10z"/>
<path d="M1687 1173 c-13 -12 -7 -43 8 -43 12 0 15 -13 15 -55 0 -52 1 -55 25
-55 23 0 25 4 26 43 1 23 1 48 0 55 -1 6 5 12 13 12 11 0 16 -14 18 -52 l3
-53 43 -3 c24 -2 49 2 57 8 9 8 15 8 20 0 8 -13 51 -13 76 0 24 13 26 68 3 77
-13 5 -13 7 -2 14 28 18 37 9 40 -43 3 -46 6 -53 26 -56 20 -3 22 0 22 51 0
47 3 55 21 60 13 4 20 12 17 24 -2 14 -14 19 -52 21 -27 2 -53 -1 -58 -6 -6
-6 -20 -6 -38 1 -22 8 -33 7 -54 -6 -18 -12 -25 -14 -24 -5 2 10 -22 14 -98
15 -55 2 -104 0 -107 -4z m215 -66 c15 -22 15 -24 0 -33 -10 -6 -28 -7 -42 -3
-25 7 -25 7 3 8 36 1 34 32 -3 42 l-25 7 25 1 c15 0 32 -9 42 -22z m58 -37 c0
-5 -4 -10 -10 -10 -5 0 -10 5 -10 10 0 6 5 10 10 10 6 0 10 -4 10 -10z"/>
</g>
</svg>
